<?xml version="1.0"?>
<svg xmlns="http://www.w3.org/2000/svg" id="Outline" viewBox="0 0 512 512" width="512" height="512"><path d="M488,24H24a8,8,0,0,0-8,8V64a8,8,0,0,0,8,8h8V480a8,8,0,0,0,8,8h96a8,8,0,0,0,7.692-10.2L123.749,408H384.721l-16.508,70.168A8,8,0,0,0,376,488h96a8,8,0,0,0,8-8V72h8a8,8,0,0,0,8-8V32A8,8,0,0,0,488,24ZM125.394,472H48V376H64v40a8,8,0,0,0,16,0V376H97.965ZM369.362,360H142.639a23.991,23.991,0,0,0-1.023-18.392c33.617-18.394,63.766-50.209,85.64-90.637a305.817,305.817,0,0,0,28.657-76.647,326.934,326.934,0,0,0,27.363,76.642c21.676,42.6,51.738,76.576,85.168,96.464a24.018,24.018,0,0,0,.918,12.57ZM248,104c0,48.371-12.365,97.862-34.816,139.357-21.408,39.565-51.035,70.153-83.747,86.583A23.92,23.92,0,0,0,120,328H48V72H248ZM120,344a8,8,0,1,1,0,16H48V344Zm-.823,48-4.571-16H392.249l-3.764,16ZM464,472H386.1l22.585-96H432v40a8,8,0,0,0,16,0V376h16Zm0-112H392a8,8,0,1,1,0-16h72Zm0-32H392a24.112,24.112,0,0,0-15.434,5.647C311.012,294.7,264,199.444,264,104V72H464ZM480,56H32V40H480Z"/></svg>
