<svg id="_x31__px" enable-background="new 0 0 24 24" height="512" viewBox="0 0 24 24" width="512" xmlns="http://www.w3.org/2000/svg"><g id="XMLID_1_"><path d="m13.35 2.52c.19.19.19.51-.01.7-.05.05-.1.09-.16.11-.18.08-.4.04-.54-.11l-.43-.43c.28-.21.57-.39.87-.54z"/><path d="m10.79 4.21c.19-.27.41-.53.65-.77s.5-.46.77-.65l.43.43c.14.15.36.19.54.11l.01.01c-.37.22-.72.49-1.04.81s-.59.67-.81 1.04l-.01-.01c.08-.18.04-.4-.11-.54z"/><path d="m10.26 5.08c.14-.3.32-.59.53-.87l.43.43c.15.14.19.36.11.54-.02.06-.06.11-.11.16-.09.1-.22.15-.35.15s-.26-.05-.35-.15z"/><path d="m11.34 5.19c-1.21 1.97-1.05 4.55.47 6.37l7.75-7.75c-.99-.83-2.22-1.27-3.53-1.27-1.01 0-1.99.27-2.84.8l-.01-.01c.06-.02.11-.06.16-.11.2-.19.2-.51.01-.7l-.27-.27c.9-.47 1.91-.71 2.95-.71 1.74 0 3.37.67 4.6 1.9.1.09.15.22.15.35 0 .14-.05.26-.15.36l-8.48 8.48c-.1.1-.22.15-.36.15-.13 0-.26-.06-.35-.15-2.04-2.04-2.43-5.11-1.18-7.55l.26.26c.09.1.22.15.35.15s.26-.05.35-.15c.05-.05.09-.1.11-.16z"/><path d="m9.9 3.32.89.89c-.21.28-.39.57-.53.87l-.7-.7.34-.44c.15-.19.14-.44 0-.62z"/><path d="m9.56 4.38-4.7 6.03c-.29-.2-.62-.32-.97-.38l4.95-6.36z"/><path d="m9.56 4.38-.72-.71.27-.35c.17-.21.49-.25.71-.08l.08.08c.14.18.15.43 0 .62z"/><path d="m9.31 1.32c-.38.39-.38 1.03.01 1.42l.5.5c-.22-.17-.54-.13-.71.08l-.27.35-.23-.23c-.77-.78-.77-2.05-.01-2.83.79-.77 2.06-.77 2.84-.01l1.64 1.65c-.3.15-.59.33-.87.54l-1.47-1.48c-.39-.38-1.03-.38-1.43.01z"/><path d="m8.74 19h-1.24c-.01 0-.03 0-.04 0l-3.27-4.1c.34-.09.64-.25.9-.47z"/><path d="m8.89 19.19c.17.21.14.53-.08.7-.09.07-.2.11-.31.11-.15 0-.29-.06-.39-.19l-.65-.81h.04 1.24z"/><path d="m16.5 20h-8c.11 0 .22-.04.31-.11.22-.17.25-.49.08-.7l-.15-.19h7.76c1.38 0 2.5 1.12 2.5 2.5v2c0 .28-.22.5-.5.5h-13c-.28 0-.5-.22-.5-.5v-2c0-1.37 1.1-2.48 2.46-2.5l.65.81c.1.13.24.19.39.19h-1c-.83 0-1.5.67-1.5 1.5v1.5h12v-1.5c0-.83-.67-1.5-1.5-1.5z"/><path d="m4.04 13.92c.02-.01.03-.02.05-.03.21-.13.49-.09.65.11l.35.43c-.26.22-.56.38-.9.47l-.23-.28c-.17-.21-.14-.53.08-.7z"/><path d="m4.86 10.41-.38.49c-.09.12-.24.19-.39.19-.05 0-.11-.01-.16-.02h-.01c-.05-.02-.1-.05-.14-.08-.22-.17-.25-.49-.08-.71l.19-.25c.35.06.68.18.97.38z"/><path d="m4.74 14c-.16-.2-.44-.24-.65-.11l-.01-.01c.54-.22.92-.76.92-1.38 0-.68-.45-1.25-1.07-1.43.05.01.11.02.16.02.15 0 .3-.07.39-.19l.38-.49c.69.44 1.14 1.21 1.14 2.09 0 .78-.35 1.47-.91 1.93z"/><path d="m3.5 15c-1.38 0-2.5-1.12-2.5-2.5s1.12-2.5 2.5-2.5c.13 0 .26.01.39.03l-.19.25c-.17.22-.14.54.08.71.04.03.09.06.14.08-.13-.05-.27-.07-.42-.07-.83 0-1.5.67-1.5 1.5s.67 1.5 1.5 1.5c.21 0 .4-.04.58-.12l.01.01c-.02.01-.03.02-.05.03-.22.17-.25.49-.08.7l.23.28c-.22.07-.45.1-.69.1z"/></g></svg>