<?xml version="1.0" encoding="iso-8859-1"?>
<!-- Generator: Adobe Illustrator 19.0.0, SVG Export Plug-In . SVG Version: 6.00 Build 0)  -->
<svg version="1.1" id="Layer_1" xmlns="http://www.w3.org/2000/svg" xmlns:xlink="http://www.w3.org/1999/xlink" x="0px" y="0px"
	 viewBox="0 0 503.607 503.607" style="enable-background:new 0 0 503.607 503.607;" xml:space="preserve">
<g transform="translate(1 1)">
	<g>
		<g>
			<path d="M469.033-1H32.574C14.108-1-1,14.108-1,32.574v436.459c0,18.466,15.108,33.574,33.574,33.574h436.459
				c18.466,0,33.574-15.108,33.574-33.574V32.574C502.607,14.108,487.498-1,469.033-1z M485.82,469.033
				c0,9.233-7.554,16.787-16.787,16.787H32.574c-9.233,0-16.787-7.554-16.787-16.787V32.574c0-9.233,7.554-16.787,16.787-16.787
				h436.459c9.233,0,16.787,7.554,16.787,16.787V469.033z"/>
			<path d="M326.344,91.328H175.262c-5.036,0-8.393,3.357-8.393,8.393v151.082c0,1.485,0.299,2.819,0.839,3.969v147.113
				c0,5.036,3.357,8.393,8.393,8.393h150.243c5.036,0,8.393-3.357,8.393-8.393V250.803V99.721
				C334.738,94.685,331.38,91.328,326.344,91.328z M183.656,108.115h134.295V242.41H183.656V108.115z M317.951,393.492H184.495
				V259.197h133.456V393.492z"/>
			<path d="M250.803,141.689c-18.466,0-33.574,15.108-33.574,33.574c0,18.466,15.108,33.574,33.574,33.574
				s33.574-15.108,33.574-33.574C284.377,156.797,269.269,141.689,250.803,141.689z M250.803,192.049
				c-9.233,0-16.787-7.554-16.787-16.787s7.554-16.787,16.787-16.787c9.233,0,16.787,7.554,16.787,16.787
				S260.036,192.049,250.803,192.049z"/>
			<path d="M250.803,359.918c5.036,0,8.393-3.357,8.393-8.393v-50.361c0-5.036-3.357-8.393-8.393-8.393s-8.393,3.357-8.393,8.393
				v50.361C242.41,356.561,245.767,359.918,250.803,359.918z"/>
			<path d="M49.361,32.574c-9.233,0-16.787,7.554-16.787,16.787s7.554,16.787,16.787,16.787s16.787-7.554,16.787-16.787
				S58.593,32.574,49.361,32.574z"/>
			<path d="M49.361,435.459c-9.233,0-16.787,7.554-16.787,16.787c0,9.233,7.554,16.787,16.787,16.787s16.787-7.554,16.787-16.787
				C66.148,443.013,58.593,435.459,49.361,435.459z"/>
			<path d="M452.246,32.574c-9.233,0-16.787,7.554-16.787,16.787s7.554,16.787,16.787,16.787c9.233,0,16.787-7.554,16.787-16.787
				S461.479,32.574,452.246,32.574z"/>
			<path d="M452.246,435.459c-9.233,0-16.787,7.554-16.787,16.787c0,9.233,7.554,16.787,16.787,16.787
				c9.233,0,16.787-7.554,16.787-16.787C469.033,443.013,461.479,435.459,452.246,435.459z"/>
		</g>
	</g>
</g>
<g>
</g>
<g>
</g>
<g>
</g>
<g>
</g>
<g>
</g>
<g>
</g>
<g>
</g>
<g>
</g>
<g>
</g>
<g>
</g>
<g>
</g>
<g>
</g>
<g>
</g>
<g>
</g>
<g>
</g>
</svg>
